<svg xmlns="http://www.w3.org/2000/svg" viewBox="0 0 255.12 193.65"><path fill="#13202f" d="M166.42,8a27.41,27.41,0,0,0-46.77,18.32v26a2.45,2.45,0,0,0,2.45,2.44h23.73c8.35,0,14.94-2.33,20.59-8A27.44,27.44,0,0,0,166.42,8Z"/><path fill="#f03748" d="M67.89,28.93A27.4,27.4,0,0,0,86.22,75.7h26a2.45,2.45,0,0,0,2.45-2.45V49.52c0-8.35-2.34-14.94-8-20.59A27.46,27.46,0,0,0,67.89,28.93Z"/><path fill="#f03748" d="M88.79,127.36A27.4,27.4,0,0,0,135.56,109V83a2.45,2.45,0,0,0-2.44-2.45H109.38c-8.34,0-14.94,2.34-20.59,8A27.46,27.46,0,0,0,88.79,127.36Z"/><path fill="#f03748" d="M187.23,106.47A27.4,27.4,0,0,0,168.9,59.7h-26a2.45,2.45,0,0,0-2.45,2.44V85.88c0,8.34,2.34,14.94,8,20.59A27.46,27.46,0,0,0,187.23,106.47Z"/><path fill="#13202f" d="M125.74,184.82c-1.57,1-3.48,2.13-5.74,2.13s-4.16-1.22-4.15-4.56v-9.84h9.85l-2.23-6.61h-7.62v-6.79h-7v6.79h-5v6.61h5l0,10.41c0,6.92,3.38,10.67,10,10.69a17.34,17.34,0,0,0,9-2.79Z"/><path fill="#13202f" d="M160.73,185.21l5.77-19.27H174l-9.1,27.24h-8.22l-5.89-18.08-5.91,18.08h-8.16l-9.13-27.24h7.64l5.83,19.15,6-19.15h7.57Z"/><path fill="#13202f" d="M236.16,175.43h2.55l7.55-9.5h8.82l-10.55,12.57,10.59,14.67h-8.85l-7.68-11.35h-2.43v11.35H229V152.32h7.21Z"/><path fill="#13202f" d="M55.57,165.48a8.94,8.94,0,0,0-7.67,3.57V152.34h-7v40.84h7V177.42a5.4,5.4,0,0,1,5.65-5.19c3.28,0,5.2,2.13,5.2,6v15h7.17l0-17.28C66,169.72,61.64,165.49,55.57,165.48Z"/><path fill="#13202f" d="M92,165.94v1.64a14.09,14.09,0,1,0,0,24v1.63h7V165.94Zm-7.37,21A7.37,7.37,0,1,1,92,179.56,7.37,7.37,0,0,1,84.67,186.93Z"/><path fill="#13202f" d="M224.18,166.05a12.23,12.23,0,0,0-2.67-.28c-3.27,0-5.74,1.11-7.42,3.62v-3.45H207v27.24h7.13V178.63c0-4,2.39-6,5.73-6a11.8,11.8,0,0,1,4.36.86h0Z"/><path fill="#13202f" d="M188.11,165.39a14.09,14.09,0,1,0,14.09,14.09A14.08,14.08,0,0,0,188.11,165.39Zm0,21.45a7.37,7.37,0,1,1,7.37-7.36A7.36,7.36,0,0,1,188.11,186.84Z"/><path fill="#13202f" d="M30.79,181.25a13.41,13.41,0,1,1-.07-17.07l5.44-4.45a20.42,20.42,0,1,0,0,26Z"/></svg>